<svg xmlns="http://www.w3.org/2000/svg" xmlns:xlink="http://www.w3.org/1999/xlink" width="500" zoomAndPan="magnify" viewBox="0 0 375 374.999991" height="500" preserveAspectRatio="xMidYMid meet" version="1.0"><defs><clipPath id="76dda81823"><path d="M 9.5 11 L 364 11 L 364 364 L 9.5 364 Z M 9.5 11 " clip-rule="nonzero"/></clipPath></defs><g clip-path="url(#76dda81823)"><path fill="#050a30" d="M 296.316406 29.441406 C 296.316406 19.324219 288.058594 11.070312 277.941406 11.070312 C 218.710938 11.066406 47.695312 11.070312 47.695312 11.070312 C 33.621094 11.070312 22.214844 22.476562 22.214844 36.550781 L 22.214844 64.050781 L 40.675781 64.050781 L 40.675781 42.242188 C 40.675781 38.738281 42.101562 35.558594 44.402344 33.257812 C 46.703125 30.957031 49.882812 29.527344 53.386719 29.527344 L 53.386719 29.550781 L 128.125 29.546875 L 265.144531 29.546875 L 265.144531 29.527344 C 268.648438 29.527344 271.828125 30.953125 274.128906 33.257812 C 276.429688 35.558594 277.855469 38.738281 277.855469 42.242188 L 277.855469 143.910156 L 296.316406 125.449219 Z M 310.144531 126.429688 L 343.203125 159.484375 C 351.351562 151.339844 356.429688 146.257812 356.429688 146.257812 C 365.523438 137.167969 365.523438 122.292969 356.429688 113.199219 C 347.339844 104.109375 332.464844 104.109375 323.371094 113.199219 C 323.371094 113.199219 318.292969 118.28125 310.144531 126.429688 Z M 194.113281 242.460938 L 179.660156 279.257812 C 178.5625 282.046875 179.160156 285.039062 181.246094 287.191406 C 183.332031 289.347656 186.300781 290.042969 189.125 289.039062 L 227.167969 275.519531 C 227.167969 275.519531 227.261719 275.425781 227.445312 275.25 C 227.445312 275.25 194.382812 242.1875 194.382812 242.1875 C 194.203125 242.367188 194.113281 242.460938 194.113281 242.460938 Z M 335.800781 166.890625 L 234.847656 267.84375 L 201.789062 234.785156 L 302.742188 133.832031 Z M 277.855469 239.640625 L 296.316406 221.179688 L 296.316406 345.628906 C 296.316406 355.75 288.058594 364 277.941406 364 C 218.710938 364.003906 47.695312 364 47.695312 364 C 33.621094 364 22.214844 352.59375 22.214844 338.519531 L 22.214844 311.019531 L 40.675781 311.019531 L 40.675781 332.828125 C 40.675781 336.316406 42.101562 339.488281 44.402344 341.789062 C 46.699219 344.089844 49.878906 345.519531 53.382812 345.519531 L 265.144531 345.519531 L 265.144531 345.539062 C 268.648438 345.539062 271.828125 344.113281 274.128906 341.8125 C 276.429688 339.511719 277.855469 336.332031 277.855469 332.828125 Z M 12.164062 74.519531 L 55.960938 74.519531 C 57.417969 74.519531 58.621094 75.722656 58.621094 77.183594 L 58.621094 91.726562 C 58.621094 93.1875 57.417969 94.390625 55.960938 94.390625 L 12.164062 94.390625 C 10.703125 94.390625 9.5 93.1875 9.5 91.726562 L 9.5 77.183594 C 9.5 75.722656 10.703125 74.519531 12.164062 74.519531 Z M 12.164062 280.679688 C 10.703125 280.679688 9.5 281.882812 9.5 283.339844 L 9.5 297.886719 C 9.5 299.347656 10.703125 300.550781 12.164062 300.550781 L 55.960938 300.550781 C 57.417969 300.550781 58.621094 299.347656 58.621094 297.886719 L 58.621094 283.339844 C 58.621094 281.882812 57.417969 280.679688 55.960938 280.679688 Z M 12.164062 211.957031 C 10.703125 211.957031 9.5 213.160156 9.5 214.621094 L 9.5 229.164062 C 9.5 230.625 10.703125 231.828125 12.164062 231.828125 L 55.960938 231.828125 C 57.417969 231.828125 58.621094 230.628906 58.621094 229.164062 L 58.621094 214.621094 C 58.621094 213.160156 57.417969 211.957031 55.960938 211.957031 Z M 12.164062 143.238281 L 55.960938 143.238281 C 57.417969 143.238281 58.621094 144.441406 58.621094 145.902344 L 58.621094 160.445312 C 58.621094 161.90625 57.417969 163.109375 55.960938 163.109375 L 12.164062 163.109375 C 10.703125 163.109375 9.5 161.90625 9.5 160.445312 L 9.5 145.902344 C 9.5 144.441406 10.703125 143.238281 12.164062 143.238281 Z M 22.214844 104.863281 L 40.675781 104.863281 L 40.675781 132.769531 L 22.214844 132.769531 Z M 22.214844 173.582031 L 22.214844 201.488281 L 40.675781 201.488281 L 40.675781 173.582031 Z M 22.214844 242.300781 L 22.214844 270.207031 L 40.675781 270.207031 L 40.675781 242.300781 Z M 265.144531 39.976562 L 265.144531 40 C 265.757812 40 266.316406 40.25 266.726562 40.660156 C 267.132812 41.066406 267.386719 41.628906 267.386719 42.242188 L 267.386719 154.378906 L 185.164062 236.601562 L 169.914062 275.429688 C 167.324219 282.019531 168.796875 289.386719 173.722656 294.472656 C 178.660156 299.574219 185.941406 301.28125 192.628906 298.90625 L 232.902344 284.59375 L 267.386719 250.109375 L 267.386719 332.828125 C 267.386719 333.441406 267.132812 334.003906 266.722656 334.410156 C 266.316406 334.820312 265.757812 335.070312 265.144531 335.070312 L 265.144531 335.09375 L 87.632812 335.089844 L 87.632812 39.980469 Z M 77.164062 39.980469 L 77.164062 335.089844 L 53.382812 335.089844 C 52.773438 335.089844 52.210938 334.835938 51.804688 334.429688 C 51.398438 334.023438 51.144531 333.457031 51.144531 332.828125 L 51.144531 311.019531 L 55.960938 311.019531 C 63.199219 311.019531 69.09375 305.125 69.09375 297.886719 L 69.09375 283.339844 C 69.09375 276.101562 63.199219 270.207031 55.960938 270.207031 L 51.144531 270.207031 L 51.144531 242.300781 L 55.960938 242.300781 C 63.199219 242.300781 69.09375 236.40625 69.09375 229.167969 L 69.09375 214.621094 C 69.09375 207.382812 63.199219 201.488281 55.960938 201.488281 L 51.144531 201.488281 L 51.144531 173.582031 L 55.960938 173.582031 C 63.199219 173.582031 69.09375 167.6875 69.09375 160.449219 L 69.09375 145.902344 C 69.09375 138.664062 63.199219 132.769531 55.960938 132.769531 L 51.144531 132.769531 L 51.144531 104.863281 L 55.960938 104.863281 C 63.199219 104.863281 69.09375 98.96875 69.09375 91.730469 L 69.09375 77.183594 C 69.09375 69.945312 63.199219 64.050781 55.960938 64.050781 L 51.144531 64.050781 L 51.144531 42.242188 C 51.144531 41.628906 51.398438 41.066406 51.808594 40.660156 C 52.214844 40.253906 52.777344 40 53.390625 40 L 53.390625 39.976562 L 77.164062 39.976562 Z M 131.222656 73.605469 L 223.796875 73.605469 C 227.300781 73.605469 230.480469 75.03125 232.785156 77.332031 C 235.085938 79.636719 236.511719 82.816406 236.511719 86.320312 L 236.511719 119.890625 C 236.511719 123.394531 235.085938 126.574219 232.785156 128.875 C 230.480469 131.175781 227.300781 132.605469 223.796875 132.605469 L 131.222656 132.605469 C 127.71875 132.605469 124.539062 131.175781 122.238281 128.875 C 119.9375 126.574219 118.507812 123.394531 118.507812 119.890625 L 118.507812 86.320312 C 118.507812 82.816406 119.9375 79.636719 122.238281 77.332031 C 124.539062 75.03125 127.71875 73.605469 131.222656 73.605469 Z M 223.796875 84.074219 C 224.414062 84.074219 224.972656 84.328125 225.378906 84.738281 C 225.789062 85.144531 226.042969 85.707031 226.042969 86.320312 L 226.042969 119.890625 C 226.042969 120.503906 225.789062 121.066406 225.378906 121.472656 C 224.972656 121.878906 224.410156 122.132812 223.796875 122.132812 L 131.222656 122.132812 C 130.609375 122.132812 130.046875 121.878906 129.640625 121.472656 C 129.234375 121.066406 128.980469 120.503906 128.980469 119.890625 L 128.980469 86.320312 C 128.980469 85.707031 129.234375 85.144531 129.640625 84.738281 C 130.046875 84.328125 130.609375 84.074219 131.222656 84.074219 Z M 223.796875 84.074219 " fill-opacity="1" fill-rule="evenodd"/></g></svg>