<svg xmlns="http://www.w3.org/2000/svg" xmlns:xlink="http://www.w3.org/1999/xlink" width="1080" zoomAndPan="magnify" viewBox="0 0 810 809.999993" height="1080" preserveAspectRatio="xMidYMid meet" version="1.0"><defs><clipPath id="7c5bcdc29a"><path d="M 81.976562 25.515625 L 729 25.515625 L 729 784.515625 L 81.976562 784.515625 Z M 81.976562 25.515625 " clip-rule="nonzero"/></clipPath><clipPath id="511c791712"><path d="M 169.09375 244.546875 L 641.59375 244.546875 L 641.59375 565.546875 L 169.09375 565.546875 Z M 169.09375 244.546875 " clip-rule="nonzero"/></clipPath></defs><g clip-path="url(#7c5bcdc29a)"><path fill="#ffffff" d="M 700.203125 638.148438 L 700.226562 638.148438 Z M 96.851562 40.585938 L 96.851562 604.507812 C 96.851562 615.976562 103.554688 626.535156 113.933594 631.425781 L 405.484375 768.625 L 697.035156 631.425781 C 707.414062 626.535156 714.117188 615.976562 714.117188 604.507812 L 714.117188 40.585938 Z M 405.484375 784.28125 C 404.402344 784.28125 403.320312 784.050781 402.316406 783.578125 L 107.597656 644.882812 C 92.035156 637.5625 81.976562 621.714844 81.976562 604.507812 L 81.976562 33.148438 C 81.976562 29.039062 85.308594 25.710938 89.414062 25.710938 L 721.554688 25.710938 C 725.664062 25.710938 728.992188 29.039062 728.992188 33.148438 L 728.992188 604.507812 C 728.992188 621.714844 718.933594 637.5625 703.371094 644.882812 L 408.652344 783.578125 C 407.648438 784.050781 406.566406 784.28125 405.484375 784.28125 " fill-opacity="1" fill-rule="nonzero"/></g><path fill="#ffffff" d="M 684.371094 51.742188 C 682.316406 51.742188 680.652344 50.078125 680.652344 48.023438 L 680.652344 33.148438 C 680.652344 31.09375 682.316406 29.429688 684.371094 29.429688 C 686.425781 29.429688 688.089844 31.09375 688.089844 33.148438 L 688.089844 48.023438 C 688.089844 50.078125 686.425781 51.742188 684.371094 51.742188 Z M 126.597656 55.785156 C 124.542969 55.785156 122.878906 54.117188 122.878906 52.066406 L 122.878906 37.195312 C 122.878906 35.136719 124.542969 33.476562 126.597656 33.476562 C 128.652344 33.476562 130.316406 35.136719 130.316406 37.195312 L 130.316406 52.066406 C 130.316406 54.117188 128.652344 55.785156 126.597656 55.785156 Z M 684.371094 85.207031 C 682.316406 85.207031 680.652344 83.542969 680.652344 81.488281 L 680.652344 66.613281 C 680.652344 64.558594 682.316406 62.894531 684.371094 62.894531 C 686.425781 62.894531 688.089844 64.558594 688.089844 66.613281 L 688.089844 81.488281 C 688.089844 83.542969 686.425781 85.207031 684.371094 85.207031 Z M 126.597656 89.253906 C 124.542969 89.253906 122.878906 87.582031 122.878906 85.535156 L 122.878906 70.660156 C 122.878906 68.605469 124.542969 66.941406 126.597656 66.941406 C 128.652344 66.941406 130.316406 68.605469 130.316406 70.660156 L 130.316406 85.535156 C 130.316406 87.582031 128.652344 89.253906 126.597656 89.253906 Z M 684.371094 118.671875 C 682.316406 118.671875 680.652344 117.011719 680.652344 114.957031 L 680.652344 100.082031 C 680.652344 98.027344 682.316406 96.363281 684.371094 96.363281 C 686.425781 96.363281 688.089844 98.027344 688.089844 100.082031 L 688.089844 114.957031 C 688.089844 117.011719 686.425781 118.671875 684.371094 118.671875 Z M 126.597656 122.71875 C 124.542969 122.71875 122.878906 121.046875 122.878906 119 L 122.878906 104.125 C 122.878906 102.070312 124.542969 100.40625 126.597656 100.40625 C 128.652344 100.40625 130.316406 102.070312 130.316406 104.125 L 130.316406 119 C 130.316406 121.046875 128.652344 122.71875 126.597656 122.71875 Z M 684.371094 152.140625 C 682.316406 152.140625 680.652344 150.476562 680.652344 148.421875 L 680.652344 133.546875 C 680.652344 131.492188 682.316406 129.828125 684.371094 129.828125 C 686.425781 129.828125 688.089844 131.492188 688.089844 133.546875 L 688.089844 148.421875 C 688.089844 150.476562 686.425781 152.140625 684.371094 152.140625 Z M 126.597656 156.183594 C 124.542969 156.183594 122.878906 154.515625 122.878906 152.464844 L 122.878906 137.59375 C 122.878906 135.539062 124.542969 133.875 126.597656 133.875 C 128.652344 133.875 130.316406 135.539062 130.316406 137.59375 L 130.316406 152.464844 C 130.316406 154.515625 128.652344 156.183594 126.597656 156.183594 Z M 684.371094 185.605469 C 682.316406 185.605469 680.652344 183.941406 680.652344 181.886719 L 680.652344 167.015625 C 680.652344 164.957031 682.316406 163.296875 684.371094 163.296875 C 686.425781 163.296875 688.089844 164.957031 688.089844 167.015625 L 688.089844 181.886719 C 688.089844 183.941406 686.425781 185.605469 684.371094 185.605469 Z M 126.597656 189.652344 C 124.542969 189.652344 122.878906 187.980469 122.878906 185.933594 L 122.878906 171.058594 C 122.878906 169.003906 124.542969 167.339844 126.597656 167.339844 C 128.652344 167.339844 130.316406 169.003906 130.316406 171.058594 L 130.316406 185.933594 C 130.316406 187.980469 128.652344 189.652344 126.597656 189.652344 Z M 684.371094 219.074219 C 682.316406 219.074219 680.652344 217.410156 680.652344 215.355469 L 680.652344 200.480469 C 680.652344 198.425781 682.316406 196.761719 684.371094 196.761719 C 686.425781 196.761719 688.089844 198.425781 688.089844 200.480469 L 688.089844 215.355469 C 688.089844 217.410156 686.425781 219.074219 684.371094 219.074219 Z M 126.597656 223.117188 C 124.542969 223.117188 122.878906 221.449219 122.878906 219.398438 L 122.878906 204.527344 C 122.878906 202.46875 124.542969 200.808594 126.597656 200.808594 C 128.652344 200.808594 130.316406 202.46875 130.316406 204.527344 L 130.316406 219.398438 C 130.316406 221.449219 128.652344 223.117188 126.597656 223.117188 Z M 684.371094 252.539062 C 682.316406 252.539062 680.652344 250.875 680.652344 248.820312 L 680.652344 233.945312 C 680.652344 231.890625 682.316406 230.226562 684.371094 230.226562 C 686.425781 230.226562 688.089844 231.890625 688.089844 233.945312 L 688.089844 248.820312 C 688.089844 250.875 686.425781 252.539062 684.371094 252.539062 Z M 126.597656 256.585938 C 124.542969 256.585938 122.878906 254.914062 122.878906 252.867188 L 122.878906 237.992188 C 122.878906 235.9375 124.542969 234.273438 126.597656 234.273438 C 128.652344 234.273438 130.316406 235.9375 130.316406 237.992188 L 130.316406 252.867188 C 130.316406 254.914062 128.652344 256.585938 126.597656 256.585938 Z M 684.371094 286.003906 C 682.316406 286.003906 680.652344 284.34375 680.652344 282.285156 L 680.652344 267.414062 C 680.652344 265.359375 682.316406 263.695312 684.371094 263.695312 C 686.425781 263.695312 688.089844 265.359375 688.089844 267.414062 L 688.089844 282.285156 C 688.089844 284.34375 686.425781 286.003906 684.371094 286.003906 Z M 126.597656 290.050781 C 124.542969 290.050781 122.878906 288.378906 122.878906 286.332031 L 122.878906 271.457031 C 122.878906 269.402344 124.542969 267.738281 126.597656 267.738281 C 128.652344 267.738281 130.316406 269.402344 130.316406 271.457031 L 130.316406 286.332031 C 130.316406 288.378906 128.652344 290.050781 126.597656 290.050781 Z M 684.371094 319.472656 C 682.316406 319.472656 680.652344 317.808594 680.652344 315.753906 L 680.652344 300.878906 C 680.652344 298.824219 682.316406 297.160156 684.371094 297.160156 C 686.425781 297.160156 688.089844 298.824219 688.089844 300.878906 L 688.089844 315.753906 C 688.089844 317.808594 686.425781 319.472656 684.371094 319.472656 Z M 126.597656 323.515625 C 124.542969 323.515625 122.878906 321.847656 122.878906 319.796875 L 122.878906 304.925781 C 122.878906 302.867188 124.542969 301.207031 126.597656 301.207031 C 128.652344 301.207031 130.316406 302.867188 130.316406 304.925781 L 130.316406 319.796875 C 130.316406 321.847656 128.652344 323.515625 126.597656 323.515625 Z M 684.371094 352.9375 C 682.316406 352.9375 680.652344 351.273438 680.652344 349.21875 L 680.652344 334.34375 C 680.652344 332.289062 682.316406 330.625 684.371094 330.625 C 686.425781 330.625 688.089844 332.289062 688.089844 334.34375 L 688.089844 349.21875 C 688.089844 351.273438 686.425781 352.9375 684.371094 352.9375 Z M 126.597656 356.984375 C 124.542969 356.984375 122.878906 355.3125 122.878906 353.265625 L 122.878906 338.390625 C 122.878906 336.335938 124.542969 334.671875 126.597656 334.671875 C 128.652344 334.671875 130.316406 336.335938 130.316406 338.390625 L 130.316406 353.265625 C 130.316406 355.3125 128.652344 356.984375 126.597656 356.984375 Z M 684.371094 386.402344 C 682.316406 386.402344 680.652344 384.742188 680.652344 382.6875 L 680.652344 367.8125 C 680.652344 365.757812 682.316406 364.09375 684.371094 364.09375 C 686.425781 364.09375 688.089844 365.757812 688.089844 367.8125 L 688.089844 382.6875 C 688.089844 384.742188 686.425781 386.402344 684.371094 386.402344 Z M 126.597656 390.449219 C 124.542969 390.449219 122.878906 388.777344 122.878906 386.730469 L 122.878906 371.855469 C 122.878906 369.800781 124.542969 368.136719 126.597656 368.136719 C 128.652344 368.136719 130.316406 369.800781 130.316406 371.855469 L 130.316406 386.730469 C 130.316406 388.777344 128.652344 390.449219 126.597656 390.449219 Z M 684.371094 419.871094 C 682.316406 419.871094 680.652344 418.207031 680.652344 416.152344 L 680.652344 401.277344 C 680.652344 399.222656 682.316406 397.558594 684.371094 397.558594 C 686.425781 397.558594 688.089844 399.222656 688.089844 401.277344 L 688.089844 416.152344 C 688.089844 418.207031 686.425781 419.871094 684.371094 419.871094 Z M 126.597656 423.914062 C 124.542969 423.914062 122.878906 422.246094 122.878906 420.199219 L 122.878906 405.324219 C 122.878906 403.269531 124.542969 401.605469 126.597656 401.605469 C 128.652344 401.605469 130.316406 403.269531 130.316406 405.324219 L 130.316406 420.199219 C 130.316406 422.246094 128.652344 423.914062 126.597656 423.914062 Z M 684.371094 453.335938 C 682.316406 453.335938 680.652344 451.671875 680.652344 449.617188 L 680.652344 434.746094 C 680.652344 432.6875 682.316406 431.027344 684.371094 431.027344 C 686.425781 431.027344 688.089844 432.6875 688.089844 434.746094 L 688.089844 449.617188 C 688.089844 451.671875 686.425781 453.335938 684.371094 453.335938 Z M 126.597656 457.382812 C 124.542969 457.382812 122.878906 455.710938 122.878906 453.664062 L 122.878906 438.789062 C 122.878906 436.734375 124.542969 435.070312 126.597656 435.070312 C 128.652344 435.070312 130.316406 436.734375 130.316406 438.789062 L 130.316406 453.664062 C 130.316406 455.710938 128.652344 457.382812 126.597656 457.382812 Z M 684.371094 486.804688 C 682.316406 486.804688 680.652344 485.140625 680.652344 483.085938 L 680.652344 468.210938 C 680.652344 466.15625 682.316406 464.492188 684.371094 464.492188 C 686.425781 464.492188 688.089844 466.15625 688.089844 468.210938 L 688.089844 483.085938 C 688.089844 485.140625 686.425781 486.804688 684.371094 486.804688 Z M 126.597656 490.847656 C 124.542969 490.847656 122.878906 489.179688 122.878906 487.128906 L 122.878906 472.257812 C 122.878906 470.199219 124.542969 468.539062 126.597656 468.539062 C 128.652344 468.539062 130.316406 470.199219 130.316406 472.257812 L 130.316406 487.128906 C 130.316406 489.179688 128.652344 490.847656 126.597656 490.847656 Z M 684.371094 520.269531 C 682.316406 520.269531 680.652344 518.605469 680.652344 516.550781 L 680.652344 501.675781 C 680.652344 499.621094 682.316406 497.957031 684.371094 497.957031 C 686.425781 497.957031 688.089844 499.621094 688.089844 501.675781 L 688.089844 516.550781 C 688.089844 518.605469 686.425781 520.269531 684.371094 520.269531 Z M 126.597656 524.316406 C 124.542969 524.316406 122.878906 522.644531 122.878906 520.597656 L 122.878906 505.722656 C 122.878906 503.667969 124.542969 502.003906 126.597656 502.003906 C 128.652344 502.003906 130.316406 503.667969 130.316406 505.722656 L 130.316406 520.597656 C 130.316406 522.644531 128.652344 524.316406 126.597656 524.316406 Z M 684.371094 553.734375 C 682.316406 553.734375 680.652344 552.074219 680.652344 550.015625 L 680.652344 535.144531 C 680.652344 533.089844 682.316406 531.425781 684.371094 531.425781 C 686.425781 531.425781 688.089844 533.089844 688.089844 535.144531 L 688.089844 550.015625 C 688.089844 552.074219 686.425781 553.734375 684.371094 553.734375 Z M 126.597656 557.78125 C 124.542969 557.78125 122.878906 556.109375 122.878906 554.0625 L 122.878906 539.1875 C 122.878906 537.132812 124.542969 535.46875 126.597656 535.46875 C 128.652344 535.46875 130.316406 537.132812 130.316406 539.1875 L 130.316406 554.0625 C 130.316406 556.109375 128.652344 557.78125 126.597656 557.78125 Z M 684.371094 587.203125 C 682.316406 587.203125 680.652344 585.539062 680.652344 583.484375 L 680.652344 568.609375 C 680.652344 566.554688 682.316406 564.890625 684.371094 564.890625 C 686.425781 564.890625 688.089844 566.554688 688.089844 568.609375 L 688.089844 583.484375 C 688.089844 585.539062 686.425781 587.203125 684.371094 587.203125 Z M 126.597656 591.246094 C 124.542969 591.246094 122.878906 589.578125 122.878906 587.527344 L 122.878906 572.65625 C 122.878906 570.601562 124.542969 568.9375 126.597656 568.9375 C 128.652344 568.9375 130.316406 570.601562 130.316406 572.65625 L 130.316406 587.527344 C 130.316406 589.578125 128.652344 591.246094 126.597656 591.246094 Z M 673.113281 613.523438 C 671.71875 613.523438 670.382812 612.738281 669.75 611.386719 C 668.871094 609.535156 669.671875 607.3125 671.53125 606.441406 L 680.652344 602.074219 C 680.652344 600.019531 682.316406 598.359375 684.371094 598.359375 C 686.425781 598.359375 688.089844 600.019531 688.089844 602.074219 L 688.089844 604.507812 C 688.089844 605.945312 687.261719 607.253906 685.953125 607.871094 L 674.695312 613.171875 C 674.179688 613.414062 673.644531 613.523438 673.113281 613.523438 Z M 141.515625 615.242188 C 140.976562 615.242188 140.441406 615.132812 139.933594 614.894531 L 126.46875 608.554688 C 124.617188 607.683594 123.816406 605.46875 124.6875 603.609375 C 125.566406 601.75 127.78125 600.949219 129.640625 601.828125 L 143.097656 608.164062 C 144.949219 609.035156 145.75 611.257812 144.878906 613.109375 C 144.246094 614.457031 142.910156 615.242188 141.515625 615.242188 Z M 642.835938 627.769531 C 641.433594 627.769531 640.097656 626.988281 639.464844 625.636719 C 638.59375 623.777344 639.394531 621.5625 641.253906 620.691406 L 654.710938 614.355469 C 656.570312 613.476562 658.777344 614.277344 659.65625 616.136719 C 660.527344 617.996094 659.726562 620.210938 657.867188 621.089844 L 644.417969 627.421875 C 643.902344 627.664062 643.367188 627.769531 642.835938 627.769531 Z M 171.792969 629.492188 C 171.265625 629.492188 170.71875 629.382812 170.210938 629.144531 L 156.753906 622.804688 C 154.894531 621.933594 154.09375 619.71875 154.972656 617.859375 C 155.84375 616 158.054688 615.199219 159.917969 616.078125 L 173.378906 622.410156 C 175.238281 623.28125 176.035156 625.503906 175.15625 627.355469 C 174.523438 628.707031 173.1875 629.492188 171.792969 629.492188 Z M 612.550781 642.019531 C 611.15625 642.019531 609.820312 641.234375 609.1875 639.894531 C 608.308594 638.035156 609.109375 635.816406 610.964844 634.941406 L 624.425781 628.605469 C 626.289062 627.726562 628.5 628.535156 629.371094 630.394531 C 630.25 632.246094 629.449219 634.460938 627.589844 635.339844 L 614.132812 641.671875 C 613.617188 641.910156 613.082031 642.019531 612.550781 642.019531 Z M 202.070312 643.742188 C 201.542969 643.742188 201.003906 643.632812 200.488281 643.394531 L 187.039062 637.054688 C 185.179688 636.179688 184.378906 633.964844 185.25 632.105469 C 186.128906 630.246094 188.34375 629.449219 190.203125 630.328125 L 203.664062 636.660156 C 205.523438 637.539062 206.3125 639.753906 205.441406 641.613281 C 204.808594 642.957031 203.464844 643.742188 202.070312 643.742188 Z M 582.273438 656.269531 C 580.878906 656.269531 579.535156 655.484375 578.902344 654.140625 C 578.03125 652.28125 578.828125 650.066406 580.679688 649.1875 L 594.144531 642.855469 C 596.003906 641.984375 598.222656 642.78125 599.09375 644.640625 C 599.964844 646.496094 599.171875 648.714844 597.3125 649.589844 L 583.855469 655.921875 C 583.339844 656.160156 582.800781 656.269531 582.273438 656.269531 Z M 232.355469 657.992188 C 231.820312 657.992188 231.28125 657.882812 230.773438 657.644531 L 217.316406 651.308594 C 215.457031 650.429688 214.65625 648.214844 215.535156 646.355469 C 216.410156 644.496094 218.617188 643.699219 220.484375 644.578125 L 233.941406 650.910156 C 235.800781 651.789062 236.589844 654.003906 235.71875 655.863281 C 235.089844 657.207031 233.75 657.992188 232.355469 657.992188 Z M 551.992188 670.519531 C 550.59375 670.519531 549.257812 669.734375 548.625 668.382812 C 547.753906 666.53125 548.542969 664.316406 550.402344 663.4375 L 563.859375 657.105469 C 565.71875 656.234375 567.933594 657.03125 568.8125 658.890625 C 569.6875 660.742188 568.886719 662.957031 567.027344 663.835938 L 553.570312 670.171875 C 553.0625 670.410156 552.523438 670.519531 551.992188 670.519531 Z M 262.636719 672.242188 C 262.105469 672.242188 261.566406 672.132812 261.050781 671.890625 L 247.59375 665.558594 C 245.742188 664.679688 244.945312 662.464844 245.816406 660.605469 C 246.6875 658.746094 248.902344 657.949219 250.761719 658.828125 L 264.21875 665.160156 C 266.078125 666.039062 266.875 668.253906 265.996094 670.113281 C 265.367188 671.457031 264.03125 672.242188 262.636719 672.242188 Z M 521.707031 684.777344 C 520.3125 684.777344 518.976562 683.984375 518.347656 682.640625 C 517.46875 680.78125 518.265625 678.566406 520.125 677.6875 L 533.582031 671.363281 C 535.433594 670.484375 537.65625 671.28125 538.527344 673.140625 C 539.402344 675 538.609375 677.207031 536.75 678.085938 L 523.292969 684.421875 C 522.785156 684.660156 522.238281 684.777344 521.707031 684.777344 Z M 292.914062 686.496094 C 292.382812 686.496094 291.84375 686.382812 291.335938 686.140625 L 277.871094 679.808594 C 276.019531 678.929688 275.222656 676.714844 276.09375 674.855469 C 276.972656 672.996094 279.1875 672.195312 281.039062 673.074219 L 294.503906 679.417969 C 296.363281 680.289062 297.15625 682.503906 296.28125 684.363281 C 295.652344 685.707031 294.308594 686.496094 292.914062 686.496094 Z M 491.429688 699.023438 C 490.035156 699.023438 488.699219 698.234375 488.0625 696.890625 C 487.1875 695.03125 487.980469 692.816406 489.839844 691.945312 L 503.296875 685.609375 C 505.164062 684.730469 507.371094 685.53125 508.25 687.390625 C 509.121094 689.25 508.324219 691.464844 506.464844 692.335938 L 493.007812 698.667969 C 492.5 698.910156 491.960938 699.023438 491.429688 699.023438 Z M 323.199219 700.746094 C 322.667969 700.746094 322.125 700.628906 321.613281 700.390625 L 308.15625 694.058594 C 306.296875 693.1875 305.5 690.972656 306.378906 689.113281 C 307.25 687.253906 309.464844 686.445312 311.324219 687.332031 L 324.78125 693.664062 C 326.640625 694.535156 327.441406 696.753906 326.5625 698.609375 C 325.929688 699.953125 324.59375 700.746094 323.199219 700.746094 Z M 461.144531 713.273438 C 459.75 713.273438 458.414062 712.484375 457.78125 711.140625 C 456.902344 709.28125 457.703125 707.066406 459.5625 706.1875 L 473.019531 699.859375 C 474.878906 698.972656 477.09375 699.78125 477.964844 701.640625 C 478.84375 703.492188 478.046875 705.707031 476.1875 706.585938 L 462.730469 712.917969 C 462.21875 713.160156 461.675781 713.273438 461.144531 713.273438 Z M 353.476562 714.996094 C 352.945312 714.996094 352.410156 714.878906 351.902344 714.640625 L 338.433594 708.308594 C 336.578125 707.433594 335.785156 705.21875 336.65625 703.359375 C 337.527344 701.5 339.742188 700.695312 341.609375 701.582031 L 355.066406 707.90625 C 356.925781 708.785156 357.71875 711 356.847656 712.859375 C 356.207031 714.203125 354.871094 714.996094 353.476562 714.996094 Z M 430.867188 727.523438 C 429.472656 727.523438 428.136719 726.730469 427.496094 725.386719 C 426.625 723.53125 427.425781 721.3125 429.285156 720.441406 L 442.742188 714.109375 C 444.601562 713.230469 446.816406 714.03125 447.6875 715.890625 C 448.558594 717.75 447.761719 719.964844 445.910156 720.835938 L 432.449219 727.167969 C 431.933594 727.40625 431.398438 727.523438 430.867188 727.523438 Z M 383.753906 729.246094 C 383.222656 729.246094 382.6875 729.136719 382.179688 728.890625 L 368.722656 722.554688 C 366.863281 721.683594 366.0625 719.46875 366.941406 717.609375 C 367.8125 715.75 370.027344 714.953125 371.886719 715.832031 L 385.34375 722.164062 C 387.203125 723.035156 388.003906 725.25 387.125 727.109375 C 386.492188 728.460938 385.15625 729.246094 383.753906 729.246094 Z M 405.484375 739.464844 C 404.945312 739.464844 404.402344 739.347656 403.902344 739.113281 L 399 736.804688 C 397.148438 735.933594 396.347656 733.71875 397.21875 731.859375 C 398.089844 730 400.304688 729.195312 402.164062 730.082031 L 405.484375 731.640625 L 412.457031 728.359375 C 414.316406 727.480469 416.53125 728.277344 417.402344 730.136719 C 418.28125 731.996094 417.480469 734.210938 415.625 735.085938 L 407.066406 739.113281 C 406.566406 739.347656 406.023438 739.464844 405.484375 739.464844 " fill-opacity="1" fill-rule="nonzero"/><path fill="#ffffff" d="M 104.289062 195.933594 L 89.414062 195.933594 C 87.359375 195.933594 85.695312 194.261719 85.695312 192.214844 C 85.695312 190.160156 87.359375 188.496094 89.414062 188.496094 L 104.289062 188.496094 C 106.34375 188.496094 108.007812 190.160156 108.007812 192.214844 C 108.007812 194.261719 106.34375 195.933594 104.289062 195.933594 Z M 137.753906 195.933594 L 122.878906 195.933594 C 120.824219 195.933594 119.160156 194.261719 119.160156 192.214844 C 119.160156 190.160156 120.824219 188.496094 122.878906 188.496094 L 137.753906 188.496094 C 139.808594 188.496094 141.472656 190.160156 141.472656 192.214844 C 141.472656 194.261719 139.808594 195.933594 137.753906 195.933594 Z M 171.21875 195.933594 L 156.347656 195.933594 C 154.289062 195.933594 152.628906 194.261719 152.628906 192.214844 C 152.628906 190.160156 154.289062 188.496094 156.347656 188.496094 L 171.21875 188.496094 C 173.277344 188.496094 174.9375 190.160156 174.9375 192.214844 C 174.9375 194.261719 173.277344 195.933594 171.21875 195.933594 Z M 204.6875 195.933594 L 189.8125 195.933594 C 187.757812 195.933594 186.09375 194.261719 186.09375 192.214844 C 186.09375 190.160156 187.757812 188.496094 189.8125 188.496094 L 204.6875 188.496094 C 206.742188 188.496094 208.40625 190.160156 208.40625 192.214844 C 208.40625 194.261719 206.742188 195.933594 204.6875 195.933594 Z M 238.152344 195.933594 L 223.277344 195.933594 C 221.222656 195.933594 219.558594 194.261719 219.558594 192.214844 C 219.558594 190.160156 221.222656 188.496094 223.277344 188.496094 L 238.152344 188.496094 C 240.207031 188.496094 241.871094 190.160156 241.871094 192.214844 C 241.871094 194.261719 240.207031 195.933594 238.152344 195.933594 Z M 271.617188 195.933594 L 256.746094 195.933594 C 254.691406 195.933594 253.027344 194.261719 253.027344 192.214844 C 253.027344 190.160156 254.691406 188.496094 256.746094 188.496094 L 271.617188 188.496094 C 273.675781 188.496094 275.335938 190.160156 275.335938 192.214844 C 275.335938 194.261719 273.675781 195.933594 271.617188 195.933594 Z M 305.085938 195.933594 L 290.210938 195.933594 C 288.15625 195.933594 286.492188 194.261719 286.492188 192.214844 C 286.492188 190.160156 288.15625 188.496094 290.210938 188.496094 L 305.085938 188.496094 C 307.140625 188.496094 308.804688 190.160156 308.804688 192.214844 C 308.804688 194.261719 307.140625 195.933594 305.085938 195.933594 Z M 338.550781 195.933594 L 323.679688 195.933594 C 321.621094 195.933594 319.960938 194.261719 319.960938 192.214844 C 319.960938 190.160156 321.621094 188.496094 323.679688 188.496094 L 338.550781 188.496094 C 340.605469 188.496094 342.269531 190.160156 342.269531 192.214844 C 342.269531 194.261719 340.605469 195.933594 338.550781 195.933594 Z M 372.019531 195.933594 L 357.144531 195.933594 C 355.089844 195.933594 353.425781 194.261719 353.425781 192.214844 C 353.425781 190.160156 355.089844 188.496094 357.144531 188.496094 L 372.019531 188.496094 C 374.074219 188.496094 375.738281 190.160156 375.738281 192.214844 C 375.738281 194.261719 374.074219 195.933594 372.019531 195.933594 Z M 405.484375 195.933594 L 390.609375 195.933594 C 388.554688 195.933594 386.890625 194.261719 386.890625 192.214844 C 386.890625 190.160156 388.554688 188.496094 390.609375 188.496094 L 405.484375 188.496094 C 407.539062 188.496094 409.203125 190.160156 409.203125 192.214844 C 409.203125 194.261719 407.539062 195.933594 405.484375 195.933594 Z M 438.949219 195.933594 L 424.078125 195.933594 C 422.019531 195.933594 420.359375 194.261719 420.359375 192.214844 C 420.359375 190.160156 422.019531 188.496094 424.078125 188.496094 L 438.949219 188.496094 C 441.007812 188.496094 442.667969 190.160156 442.667969 192.214844 C 442.667969 194.261719 441.007812 195.933594 438.949219 195.933594 Z M 472.417969 195.933594 L 457.542969 195.933594 C 455.488281 195.933594 453.824219 194.261719 453.824219 192.214844 C 453.824219 190.160156 455.488281 188.496094 457.542969 188.496094 L 472.417969 188.496094 C 474.472656 188.496094 476.136719 190.160156 476.136719 192.214844 C 476.136719 194.261719 474.472656 195.933594 472.417969 195.933594 Z M 505.882812 195.933594 L 491.007812 195.933594 C 488.953125 195.933594 487.289062 194.261719 487.289062 192.214844 C 487.289062 190.160156 488.953125 188.496094 491.007812 188.496094 L 505.882812 188.496094 C 507.9375 188.496094 509.601562 190.160156 509.601562 192.214844 C 509.601562 194.261719 507.9375 195.933594 505.882812 195.933594 Z M 539.351562 195.933594 L 524.476562 195.933594 C 522.421875 195.933594 520.757812 194.261719 520.757812 192.214844 C 520.757812 190.160156 522.421875 188.496094 524.476562 188.496094 L 539.351562 188.496094 C 541.40625 188.496094 543.066406 190.160156 543.066406 192.214844 C 543.066406 194.261719 541.40625 195.933594 539.351562 195.933594 Z M 572.816406 195.933594 L 557.941406 195.933594 C 555.886719 195.933594 554.222656 194.261719 554.222656 192.214844 C 554.222656 190.160156 555.886719 188.496094 557.941406 188.496094 L 572.816406 188.496094 C 574.871094 188.496094 576.535156 190.160156 576.535156 192.214844 C 576.535156 194.261719 574.871094 195.933594 572.816406 195.933594 Z M 606.28125 195.933594 L 591.410156 195.933594 C 589.351562 195.933594 587.691406 194.261719 587.691406 192.214844 C 587.691406 190.160156 589.351562 188.496094 591.410156 188.496094 L 606.28125 188.496094 C 608.335938 188.496094 610 190.160156 610 192.214844 C 610 194.261719 608.335938 195.933594 606.28125 195.933594 Z M 639.75 195.933594 L 624.875 195.933594 C 622.820312 195.933594 621.15625 194.261719 621.15625 192.214844 C 621.15625 190.160156 622.820312 188.496094 624.875 188.496094 L 639.75 188.496094 C 641.804688 188.496094 643.46875 190.160156 643.46875 192.214844 C 643.46875 194.261719 641.804688 195.933594 639.75 195.933594 Z M 673.214844 195.933594 L 658.339844 195.933594 C 656.285156 195.933594 654.621094 194.261719 654.621094 192.214844 C 654.621094 190.160156 656.285156 188.496094 658.339844 188.496094 L 673.214844 188.496094 C 675.269531 188.496094 676.933594 190.160156 676.933594 192.214844 C 676.933594 194.261719 675.269531 195.933594 673.214844 195.933594 Z M 706.679688 195.933594 L 691.808594 195.933594 C 689.753906 195.933594 688.089844 194.261719 688.089844 192.214844 C 688.089844 190.160156 689.753906 188.496094 691.808594 188.496094 L 706.679688 188.496094 C 708.738281 188.496094 710.398438 190.160156 710.398438 192.214844 C 710.398438 194.261719 708.738281 195.933594 706.679688 195.933594 " fill-opacity="1" fill-rule="nonzero"/><g clip-path="url(#511c791712)"><path fill="#ffffff" d="M 169.09375 509.539062 L 221.328125 565.265625 L 169.09375 565.265625 Z M 432.4375 323.867188 L 374.695312 323.867188 C 380.027344 332.171875 382.621094 341.550781 382.621094 351.726562 C 382.621094 366.554688 377.011719 378.96875 366.59375 389.382812 C 356.179688 399.800781 343.761719 405.007812 329.339844 405.007812 L 169.09375 405.007812 L 169.09375 509.53125 L 221.328125 565.253906 L 222.378906 565.253906 L 222.378906 458.6875 L 329.339844 458.6875 C 358.582031 458.6875 383.824219 448.269531 404.65625 427.4375 C 425.894531 406.605469 435.90625 380.96875 435.90625 351.714844 C 435.90625 342 434.746094 332.71875 432.4375 323.867188 Z M 169.09375 244.761719 L 222.378906 298.449219 L 481.582031 298.449219 L 481.582031 565.265625 L 535.269531 565.265625 L 535.269531 298.449219 L 641.835938 298.449219 L 641.835938 244.761719 Z M 169.09375 244.761719 " fill-opacity="1" fill-rule="nonzero"/></g></svg>